{
	"asset":{
		"generator":"Khronos glTF Blender I/O v4.0.44",
		"version":"2.0"
	},
	"extensionsUsed":[
		"KHR_materials_transmission",
		"KHR_materials_ior"
	],
	"scene":0,
	"scenes":[
		{
			"name":"Scene",
			"nodes":[
				0
			]
		}
	],
	"nodes":[
		{
			"mesh":0,
			"name":"Sphere",
			"rotation":[
				0,
				-0.7071068286895752,
				-0.7071068286895752,
				0
			],
			"scale":[
				-0.3450455665588379,
				-0.19702103734016418,
				-0.3450455665588379
			],
			"translation":[
				-0.8842799067497253,
				0,
				0
			]
		}
	],
	"materials":[
		{
			"doubleSided":true,
			"name":"Neuron",
			"pbrMetallicRoughness":{
				"metallicFactor":0
			}
		},
		{
			"doubleSided":true,
			"extensions":{
				"KHR_materials_transmission":{
					"transmissionFactor":1
				},
				"KHR_materials_ior":{
					"ior":1.4500000476837158
				}
			},
			"name":"Myelin Sheath",
			"pbrMetallicRoughness":{
				"baseColorFactor":[
					0.8000785112380981,
					0.10610483586788177,
					0.1509825438261032,
					1
				],
				"metallicFactor":0,
				"roughnessFactor":0.041999999433755875
			}
		},
		{
			"doubleSided":true,
			"extensions":{
				"KHR_materials_transmission":{
					"transmissionFactor":1
				},
				"KHR_materials_ior":{
					"ior":1.4500000476837158
				}
			},
			"name":"Schwaan Cell",
			"pbrMetallicRoughness":{
				"baseColorFactor":[
					0.16195973753929138,
					0.010724758729338646,
					0.012799583375453949,
					1
				],
				"metallicFactor":0,
				"roughnessFactor":0.5
			}
		}
	],
	"meshes":[
		{
			"name":"Sphere",
			"primitives":[
				{
					"attributes":{
						"POSITION":0,
						"NORMAL":1,
						"TEXCOORD_0":2
					},
					"indices":3,
					"material":0
				},
				{
					"attributes":{
						"POSITION":4,
						"NORMAL":5,
						"TEXCOORD_0":6
					},
					"indices":7,
					"material":1
				},
				{
					"attributes":{
						"POSITION":8,
						"NORMAL":9,
						"TEXCOORD_0":10
					},
					"indices":11,
					"material":2
				}
			]
		}
	],
	"accessors":[
		{
			"bufferView":0,
			"componentType":5126,
			"count":497828,
			"max":[
				7.929602146148682,
				0.9481320381164551,
				2.641777276992798
			],
			"min":[
				-2.301950693130493,
				-1.012927770614624,
				-2.5818583965301514
			],
			"type":"VEC3"
		},
		{
			"bufferView":1,
			"componentType":5126,
			"count":497828,
			"type":"VEC3"
		},
		{
			"bufferView":2,
			"componentType":5126,
			"count":497828,
			"type":"VEC2"
		},
		{
			"bufferView":3,
			"componentType":5125,
			"count":746808,
			"type":"SCALAR"
		},
		{
			"bufferView":4,
			"componentType":5126,
			"count":3595,
			"max":[
				4.944874286651611,
				0.4929373562335968,
				0.5646989345550537
			],
			"min":[
				1.312675952911377,
				-0.5519252419471741,
				-0.31568020582199097
			],
			"type":"VEC3"
		},
		{
			"bufferView":5,
			"componentType":5126,
			"count":3595,
			"type":"VEC3"
		},
		{
			"bufferView":6,
			"componentType":5126,
			"count":3595,
			"type":"VEC2"
		},
		{
			"bufferView":7,
			"componentType":5123,
			"count":13380,
			"type":"SCALAR"
		},
		{
			"bufferView":8,
			"componentType":5126,
			"count":2795,
			"max":[
				4.7197465896606445,
				-0.20531314611434937,
				0.3637617826461792
			],
			"min":[
				1.5743637084960938,
				-0.5022403597831726,
				-0.15518830716609955
			],
			"type":"VEC3"
		},
		{
			"bufferView":9,
			"componentType":5126,
			"count":2795,
			"type":"VEC3"
		},
		{
			"bufferView":10,
			"componentType":5126,
			"count":2795,
			"type":"VEC2"
		},
		{
			"bufferView":11,
			"componentType":5123,
			"count":14400,
			"type":"SCALAR"
		}
	],
	"bufferViews":[
		{
			"buffer":0,
			"byteLength":5973936,
			"byteOffset":0,
			"target":34962
		},
		{
			"buffer":0,
			"byteLength":5973936,
			"byteOffset":5973936,
			"target":34962
		},
		{
			"buffer":0,
			"byteLength":3982624,
			"byteOffset":11947872,
			"target":34962
		},
		{
			"buffer":0,
			"byteLength":2987232,
			"byteOffset":15930496,
			"target":34963
		},
		{
			"buffer":0,
			"byteLength":43140,
			"byteOffset":18917728,
			"target":34962
		},
		{
			"buffer":0,
			"byteLength":43140,
			"byteOffset":18960868,
			"target":34962
		},
		{
			"buffer":0,
			"byteLength":28760,
			"byteOffset":19004008,
			"target":34962
		},
		{
			"buffer":0,
			"byteLength":26760,
			"byteOffset":19032768,
			"target":34963
		},
		{
			"buffer":0,
			"byteLength":33540,
			"byteOffset":19059528,
			"target":34962
		},
		{
			"buffer":0,
			"byteLength":33540,
			"byteOffset":19093068,
			"target":34962
		},
		{
			"buffer":0,
			"byteLength":22360,
			"byteOffset":19126608,
			"target":34962
		},
		{
			"buffer":0,
			"byteLength":28800,
			"byteOffset":19148968,
			"target":34963
		}
	],
	"buffers":[
		{
			"byteLength":19177768,
			"uri":"neurontutorial.bin"
		}
	]
}
